<svg width="31" height="31" viewBox="0 0 31 31" fill="none" xmlns="http://www.w3.org/2000/svg">
<path d="M9.00627 17.3575L1.72993 10.0828C0.237981 8.59088 -0.344715 6.41599 0.201351 4.37797C0.747409 2.3396 2.33961 0.747413 4.37798 0.201347C6.416 -0.34471 8.59088 0.23798 10.0828 1.72993L17.3575 9.00627C17.766 9.41408 17.7667 10.0759 17.3585 10.4844C16.9507 10.8929 16.2889 10.8933 15.8804 10.4855L8.6051 3.20805C7.6409 2.24385 6.2353 1.86713 4.91818 2.21996C3.60106 2.57317 2.57254 3.60167 2.21935 4.9188C1.86648 6.23592 2.24319 7.64143 3.20743 8.60572L10.4855 15.8804C10.8813 16.2903 10.8757 16.9417 10.4728 17.3447C10.0698 17.7477 9.41831 17.7536 9.00841 17.3575L9.00627 17.3575ZM29.2732 20.9172L21.9937 13.6425C21.5856 13.234 20.9237 13.2337 20.5152 13.6415C20.1067 14.0493 20.1064 14.7111 20.5142 15.1196L27.792 22.3949C28.7559 23.3591 29.1325 24.7647 28.7797 26.0818C28.4268 27.399 27.398 28.4278 26.0809 28.7807C24.7637 29.1335 23.3582 28.7568 22.3939 27.7929L15.1193 20.5145C14.7094 20.1187 14.0579 20.1243 13.6549 20.5273C13.252 20.9302 13.2461 21.5821 13.6421 21.992L20.9168 29.2701C22.4088 30.762 24.5836 31.3447 26.622 30.7986C28.66 30.2526 30.2522 28.6604 30.7983 26.6224C31.3443 24.584 30.7617 22.4091 29.2697 20.9172L29.2732 20.9172ZM19.717 8.44578C20.2776 8.57642 20.8382 8.22874 20.9705 7.66851L22.0329 3.17293C22.1615 2.61271 21.8138 2.05355 21.2543 1.92181C20.6948 1.79013 20.1338 2.13505 19.999 2.69355L18.9391 7.19054C18.8078 7.75181 19.1558 8.31369 19.717 8.44578ZM23.5705 12.0878C23.6514 12.0878 23.7323 12.0784 23.8107 12.0598L28.3081 11.0012C28.579 10.939 28.8141 10.771 28.9609 10.5349C29.1078 10.2989 29.1545 10.0141 29.0909 9.74351C29.0269 9.4729 28.8579 9.23893 28.6212 9.09308C28.3841 8.94758 28.099 8.90231 27.8287 8.96762L23.3317 10.0275C22.8158 10.1492 22.4726 10.6379 22.5337 11.1646C22.5946 11.6913 23.0404 12.0887 23.5706 12.0891L23.5705 12.0878ZM7.18856 18.9397L2.69121 19.9996C2.17522 20.1213 1.83204 20.6099 1.89321 21.1367C1.95438 21.6634 2.40022 22.0608 2.9304 22.0612C3.01127 22.0612 3.0918 22.0518 3.17059 22.0335L7.66759 20.9736C8.22643 20.8388 8.57135 20.2775 8.43967 19.7183C8.30765 19.1588 7.74881 18.8108 7.18856 18.9397ZM11.2825 22.555C10.722 22.4244 10.1611 22.7721 10.0287 23.3323L8.96664 27.8279C8.836 28.3888 9.18368 28.9494 9.74391 29.0817C9.82271 29.1001 9.90324 29.1094 9.9841 29.1094C10.4673 29.1097 10.8875 28.7783 11.0001 28.3086L12.0601 23.8116C12.1237 23.5421 12.0774 23.2576 11.9315 23.0219C11.7857 22.7866 11.5525 22.6183 11.2825 22.555Z" fill="#3F4B5C"/>
</svg>
